<svg width="75" height="76" viewBox="0 0 75 76" fill="none" xmlns="http://www.w3.org/2000/svg">
<path d="M37.1547 75.4913C37.0268 75.4936 36.8957 75.4947 36.7656 75.4958C36.8957 75.4969 37.0246 75.5002 37.1547 75.5002V75.4902V75.4913Z" fill="#FFA299"/>
<path d="M9.10939 32.0305C14.2203 32.0305 22.9069 36.1266 22.9069 41.1916C22.9069 45.7177 45.502 -43.968 18.3724 58.3277C18.3724 60.733 19.2839 62.7756 21.1059 64.4577C22.9278 66.1399 25.1036 66.9798 27.631 66.9798C30.1583 66.9798 32.3341 66.1399 34.1561 64.4577C35.978 62.7756 36.8895 60.7319 36.8895 58.3277V0.5C15.7748 0.940455 -15.7026 32.0294 9.10939 32.0294V32.0305Z" fill="#FFA299"/>
<path d="M54.8587 4.84136C42.8788 -1.45469 43.4996 26.1042 43.4996 26.1042C43.4996 26.1042 42.9185 77.4359 54.8841 71.1355C66.8497 64.8351 74.9994 52.3588 74.9994 37.995C74.9994 23.6203 66.8387 11.1374 54.8587 4.84136Z" fill="#FFA299"/>
</svg>
